<svg id="Layer_1" data-name="Layer 1" xmlns="http://www.w3.org/2000/svg" viewBox="0 0 512 512"><title>orange-slice-flat</title><rect y="9.14" width="512" height="493.72" rx="54.99" ry="54.99" transform="translate(512) rotate(90)" fill="#e6d6a6"/><rect x="20.23" y="11.1" width="471.53" height="489.81" rx="43.89" ry="43.89" fill="#87884a"/><path d="M152.29,260a103.32,103.32,0,0,0,27.55,66.57L246.41,260Zm0,0" fill="#e6d6a6"/><path d="M260,152.28v94.14l66.57-66.59A103.32,103.32,0,0,0,260,152.28Zm0,0" fill="#e6d6a6"/><path d="M179.84,185.46A103.1,103.1,0,0,0,152.29,252h94.12Zm0,0" fill="#e6d6a6"/><path d="M252,246.42V152.28a103,103,0,0,0-66.57,27.55Zm0,0" fill="#e6d6a6"/><path d="M252,359.72V265.53l-66.57,66.63A103.6,103.6,0,0,0,252,359.72Zm0,0" fill="#e6d6a6"/><path d="M359.71,252a103.58,103.58,0,0,0-27.55-66.57L265.59,252Zm0,0" fill="#e6d6a6"/><path d="M260,359.72a103.6,103.6,0,0,0,66.57-27.57L260,265.58Zm0,0" fill="#e6d6a6"/><path d="M265.59,260l66.57,66.57A103.52,103.52,0,0,0,359.71,260Zm0,0" fill="#e6d6a6"/><path d="M256,375.46A119.46,119.46,0,1,1,375.46,256,119.59,119.59,0,0,1,256,375.46Zm0-229.58A110.13,110.13,0,1,0,366.13,256,110.25,110.25,0,0,0,256,145.87Z" fill="#e6d6a6"/></svg>