<svg id="Layer_1" data-name="Layer 1" xmlns="http://www.w3.org/2000/svg" viewBox="0 0 512 512"><title>apple1-flat</title><rect y="9.14" width="512" height="493.72" rx="54.99" ry="54.99" transform="translate(512) rotate(90)" fill="#e6d6a6"/><rect x="20.23" y="11.1" width="471.53" height="489.81" rx="43.89" ry="43.89" fill="#57595b"/><path d="M261.82,201.23a209.68,209.68,0,0,1,21-29.09c7.76-8.91,22.95-20.35,22.95-20.35,2.29-1.73,2-4.12-.56-5.35l-18.34-8.57a6.76,6.76,0,0,0-7.86,2s-13.56,19.48-29.53,60.91c-49.39-22.33-96.32,9-96.32,63.36,0,56.82,43.72,143.14,102.83,117.07,62.29,26.94,102.89-60.26,102.89-117.07,0-54.89-42.2-87.07-97-62.88Zm0,0" fill="#e6d6a6"/><path d="M250.76,182.85a6.37,6.37,0,0,0,5.62-5.62s1.84-22.23-13.65-37.72S205,125.85,205,125.85a6.34,6.34,0,0,0-5.6,5.6S197.52,153.7,213,169.18s37.72,13.66,37.72,13.66Zm0,0" fill="#e6d6a6"/></svg>