<svg id="Layer_1" data-name="Layer 1" xmlns="http://www.w3.org/2000/svg" viewBox="0 0 512 512"><title>apple-flat</title><rect y="9.14" width="512" height="493.72" rx="54.99" ry="54.99" transform="translate(512) rotate(90)" fill="#e6d6a6"/><rect x="20.24" y="11.1" width="471.53" height="489.81" rx="43.89" ry="43.89" fill="#b94355"/><path d="M266.81,221.78c-1,2.44-2,5-3,7.78l-12.31,5.79c-1.45-11.58-15.09-19.73-23.17-22.44-14.92-5-30.64-5.38-44.87,1.63C156.27,228,147,256.78,150.15,286c2.4,22.45,18.09,48.79,36.4,62.08,10,7.25,38.93,28.42,63.71,14.86,6.6-2.67,28.8,17.9,63.7-2.17C417.9,275.5,332,184.26,266.81,221.78Zm-55.06,117.6a63.11,63.11,0,0,1-7.35-1.83,73.85,73.85,0,0,1-9.29-3.6L190,331.21c-1.74-1-3.4-2.27-5.2-3.47s-3.38-2.8-5.15-4.26-3.22-3.36-4.89-5.1A58.26,58.26,0,0,1,162.19,291a65.22,65.22,0,0,1-.65-15.34,68.87,68.87,0,0,1,2.82-14.42,65.94,65.94,0,0,1,5.45-12.48,53.34,53.34,0,0,1,7.2-9.86,34.65,34.65,0,0,1,8.08-6.59,18.58,18.58,0,0,1,7.67-2.74,10.06,10.06,0,0,1,5.13.68l1.51.8H197.7a9.64,9.64,0,0,0-4.15,1.27,18.93,18.93,0,0,0-5,4.29,38.19,38.19,0,0,0-4.79,7.23,62.86,62.86,0,0,0-4.08,9.48,83.51,83.51,0,0,0-2.9,11.07,88.58,88.58,0,0,0-1.23,12,68.65,68.65,0,0,0,.91,12.19,55.37,55.37,0,0,0,3.23,11.63c.65,1.89,1.62,3.62,2.43,5.42s2,3.37,2.93,5.07c1.15,1.56,2.19,3.17,3.37,4.65s2.34,3,3.63,4.26,2.5,2.65,3.78,3.86l3.81,3.44c1.25,1.1,2.56,2,3.75,3a40.17,40.17,0,0,0,3.5,2.66c2.29,1.53,4.2,3.17,6,4.18,3.43,2.18,5.4,3.62,5.4,3.62S215.89,340.1,211.75,339.37Z" fill="#e6d6a6"/><path d="M266.81,221.78c19.2-45.17,55.68-33.48,55.68-33.48,9.41-2.17,3.62-10.13,3.62-10.13-19.62-6.9-34.86-1-46.3,9.11-1.14,7.3-4.33,13.69-10.16,17a22.1,22.1,0,0,1-4.89,1.49,132.2,132.2,0,0,0-12.36,26.89c-.56,1.72-.85,2.74-.85,2.74l12.31-5.79C264.78,226.78,265.78,224.22,266.81,221.78Z" fill="#e6d6a6"/><path d="M279.81,187.27c2-12.5-2.1-27.7-9.28-34.62-8.2-7.92-17.06-11.23-28.4-10.12a95.32,95.32,0,0,0-21.77,4.5c-5.22,1.81-9.66,6.23-14.93,7.12,19.83-5.59,29.32,12.36,32.36,28.36,2.42,12.73,13,25.86,27,23.21a22.1,22.1,0,0,0,4.89-1.49C275.48,201,278.66,194.57,279.81,187.27Zm-11.6,10.47c-.18-.9-.59-2-.89-3.21s-.85-2.59-1.27-4.08-1.13-3-1.65-4.73c-.7-1.64-1.32-3.38-2.1-5.14s-1.6-3.55-2.5-5.34-1.9-3.53-2.85-5.32c-1.11-1.66-2.06-3.46-3.28-5-.6-.77-1.12-1.61-1.72-2.35l-1.84-2.14a25.09,25.09,0,0,0-1.92-1.92,16.24,16.24,0,0,0-1.91-1.77,29.1,29.1,0,0,0-3.92-2.71L240.5,153l-1.77-.69-1.62-.64a10.87,10.87,0,0,0-1.5-.35c-1.84-.38-2.89-.66-2.89-.66s1.06-.21,2.93-.49a12.76,12.76,0,0,1,1.55-.17c.58,0,1.21.08,1.91.14l2.24.21,2.33.68a21.58,21.58,0,0,1,5,2.2,20.49,20.49,0,0,1,2.5,1.65,18.34,18.34,0,0,1,2.45,2,37.16,37.16,0,0,1,4.46,4.72,51.15,51.15,0,0,1,3.8,5.46,60,60,0,0,1,3,5.89,51.7,51.7,0,0,1,2.2,5.95,57.31,57.31,0,0,1,1.47,5.72c.31,1.86.64,3.59.75,5.23a36.86,36.86,0,0,1,.21,4.45,31.29,31.29,0,0,1-.16,3.42c-.24,1.9-.44,2.95-.44,2.95S268.62,199.54,268.21,197.74Z" fill="#e6d6a6"/></svg>