<svg id="Layer_1" data-name="Layer 1" xmlns="http://www.w3.org/2000/svg" viewBox="0 0 512 512"><title>banana-flat</title><rect y="9.14" width="512" height="493.72" rx="54.99" ry="54.99" transform="translate(512) rotate(90)" fill="#e6d6a6"/><rect x="20.24" y="11.1" width="471.53" height="489.81" rx="43.89" ry="43.89" fill="#e2ba20"/><path d="M379.23,237.58c-.18-.87-.35-1.75-.6-2.59h0c-6.3-21.4-17-24.23-18.89-36.19s-4.09-24.85-1.26-35.24h0c0-.07,0-.13.06-.2A134.8,134.8,0,0,1,363,150.49l-9.52-4.86-.06.07-15,.51s-6.11,12.86-5.89,16.43a4.89,4.89,0,0,0,4.18,4.44l.63.09c-2.22,6.8-3.6,15.87-14.63,21.65-11.41,6-16,24.48-33.55,36.4s-45,27.07-77.32,13.58-54.6-28.29-62.07-35c-.49-.44-1-.83-1.44-1.19l-.45-.31-.2-.14c-.19-.13-.37-.27-.56-.38l-.19-.12-.48-.26c-.2-.11-.4-.23-.6-.33l-.28-.12-.43-.17-.52-.2-.37-.11-.36-.1-.44-.1-.46-.07-.3,0-.37,0c-.17,0-.33,0-.5,0h-.27l-.31,0-.48.08-.55.13-.46.16-.39.15-.06,0h0l-.06,0-.45.23c-.16.09-.32.19-.47.29s-.29.19-.43.3l-.44.37-.4.37c-.14.14-.27.29-.4.44s-.26.28-.38.44-.25.33-.36.49-.24.33-.35.5-.23.38-.34.57-.21.36-.32.54-.23.47-.34.71-.17.34-.25.52c-.18.43-.36.87-.52,1.33s-.3.89-.44,1.4v0c-2.44,8.42-4.31,29.56,12.44,51.12,1,1.35,2.12,2.71,3.3,4.06,21,24.05,57,37.56,89.84,35.79,24.5-1.32,44.21-8.07,57.78-15.09-11.81,10.23-27.17,18.13-47.51,18.46-38.1.63-66.75-4.41-77.14-7.87-.64-.21-1.25-.39-1.85-.54h0l-.09,0-.47-.1c-.38-.08-.76-.16-1.12-.21l-.21,0c-.19,0-.37,0-.56,0s-.53-.06-.79-.07h-.82l-.61,0-.4,0-.43.06-.48.09-.46.13-.34.1-.37.13a5.09,5.09,0,0,0-.49.22l-.08,0-.2.09-.28.17c-.15.09-.29.18-.43.28s-.34.25-.5.38-.26.22-.38.34l-.34.33,0,0h0l-.06.08c-.11.13-.22.26-.32.4s-.25.35-.37.53-.18.29-.27.44-.21.4-.31.62-.15.31-.21.48-.17.46-.25.7-.11.33-.16.51-.12.52-.18.78-.08.35-.11.53-.08.58-.11.88,0,.35-.05.53c0,.33,0,.68,0,1,0,.15,0,.3,0,.46,0,.52,0,1,.06,1.57s.09,1,.17,1.58h0c1.24,9.45,8.59,31.32,34.69,45.51,1.61.9,3.28,1.77,5,2.61C229.21,371.24,271,369,303,352.95s51.17-38.16,59.64-52.35c6.89-11.53,17.3-33.49,17.59-52.81A44.89,44.89,0,0,0,379.23,237.58ZM270,278a73.45,73.45,0,0,1-7.54,2.35l-4.71,1.29-5.31,1.06a115.74,115.74,0,0,1-12.12,1.74l-6.71.38c-2.3.17-4.65-.05-7-.06a100.21,100.21,0,0,1-14.74-1.59c-2.51-.38-5-1.1-7.48-1.68S199.42,280,197,279.2a99,99,0,0,1-14-6.58A80.51,80.51,0,0,1,170.77,264a82.23,82.23,0,0,1-9.88-9.76,85,85,0,0,1-7.36-9.92,79.24,79.24,0,0,1-8.05-16.44,43,43,0,0,1-1.86-6.64s1.15,2.23,3.48,5.86c1.14,1.82,2.65,4,4.38,6.37s3.89,5,6.21,7.75,5.12,5.52,8.07,8.37a117.7,117.7,0,0,0,9.92,8.15c1.77,1.34,3.68,2.53,5.59,3.78s3.91,2.37,6,3.42a91.58,91.58,0,0,0,12.82,5.71c2.24.74,4.45,1.53,6.72,2.18s4.51,1.31,6.81,1.72a124.8,124.8,0,0,0,13.56,2.24c4.45.47,8.8.7,13,.88,4.14-.09,8.1.1,11.75-.15l5.26-.22,4.75-.37c3-.24,5.61-.4,7.75-.69,4.31-.48,6.82-.65,6.82-.65S274.12,276.57,270,278Zm87.67,3.58a68.62,68.62,0,0,1-1.53,7.7,37.07,37.07,0,0,1-2.9,7.77l.16-.3a70.15,70.15,0,0,1-13.14,19.41,83.58,83.58,0,0,1-8.45,8,107.62,107.62,0,0,1-9.38,6.84,101.4,101.4,0,0,1-10,5.77,106.16,106.16,0,0,1-10.63,4.57c-3.62,1.33-7.31,2.46-11,3.44a105.21,105.21,0,0,1-11.3,2.27c-3.8.53-7.61.95-11.43,1.12-1.91.15-3.82.17-5.73.17s-3.82.06-5.72-.09c-3.81-.13-7.59-.55-11.37-.93-3.75-.57-7.51-1-11.19-1.92-3.71-.71-7.34-1.78-11-2.71-3.59-1.13-7.19-2.22-10.68-3.59s-7-2.73-10.38-4.26-6.7-3.3-10-4.94c3.58,1,7.11,2.19,10.68,3.15s7.13,1.93,10.72,2.75,7.2,1.48,10.77,2.26c3.62.56,7.21,1.25,10.84,1.59s7.24.7,10.85,1c3.62.11,7.23.27,10.84.13,1.8,0,3.6-.1,5.4-.21s3.59-.18,5.38-.4c3.57-.31,7.12-.85,10.64-1.49s7-1.46,10.44-2.38,6.82-2.06,10.15-3.32,6.57-2.72,9.74-4.31a92.1,92.1,0,0,0,9.29-5.18,97.69,97.69,0,0,0,8.67-6.13c2.7-2.27,5.44-4.52,7.91-7a67.81,67.81,0,0,0,12.52-16.67l.16-.3a30.2,30.2,0,0,0,2.75-6,61,61,0,0,0,1.91-6.85,91.16,91.16,0,0,0,2.17-14.36,77.16,77.16,0,0,0-.08-14.6,38.12,38.12,0,0,0-1.4-7.16,16.94,16.94,0,0,0-3.37-6.49,14.28,14.28,0,0,1,2.67,2.69,21.76,21.76,0,0,1,2,3.25,39.69,39.69,0,0,1,2.66,7.21,72.85,72.85,0,0,1,2.13,15.18A95.47,95.47,0,0,1,357.66,281.62Z" fill="#e6d6a6"/></svg>