<svg id="Layer_1" data-name="Layer 1" xmlns="http://www.w3.org/2000/svg" viewBox="0 0 512 512"><title>cherries-flat</title><rect y="9.14" width="512" height="493.72" rx="54.99" ry="54.99" transform="translate(512) rotate(90)" fill="#e6d6a6"/><rect x="20.23" y="11.1" width="471.53" height="489.81" rx="43.89" ry="43.89" fill="#c05358"/><path d="M313.55,293.91a50.06,50.06,0,0,0-7-.47,62,62,0,0,0-19.7,3.08c-20.44-33.53-45.75-84.74-37.21-121.66a90.56,90.56,0,0,0,2.53,11,63.55,63.55,0,0,0,15.57,26A59.52,59.52,0,0,0,294,227.41a68.91,68.91,0,0,0,18,2.73,65.13,65.13,0,0,0,23.29-3.76A148.42,148.42,0,0,0,332.37,208a91.81,91.81,0,0,0-5-15.33A75.34,75.34,0,0,0,311,168.53a72.39,72.39,0,0,0-24.55-16.33,80,80,0,0,0-19.76-5q13-10.67,34.89-15.24,2.5-.17,5-.17v-8.58c-23.81,0-44.16,8.55-60.43,25.4-38.2,39.52-44.19,113.82-45,145-25.9,1.68-46.27,18.21-46.27,44.7a50.55,50.55,0,0,0,101.1,0c0-25.58-18.94-41-43.55-44.37-.88-.11-1.73-.2-2.64-.26.79-27.66,5.84-90,33.86-128.67,0,0,0,.09-.06.15C228.66,205.5,256.32,263,278.78,300,265.07,307.39,256,320.63,256,338.28a50.55,50.55,0,0,0,101.1,0c0-25.58-18.94-41-43.55-44.37ZM255.74,154c12.39,13.39,52,51,52,51-38.82-25.13-54.82-47.18-54.82-47.18Zm0,0" fill="#e6d6a6"/></svg>