<svg id="Layer_1" data-name="Layer 1" xmlns="http://www.w3.org/2000/svg" viewBox="0 0 512 512"><title>grapes-flat</title><rect y="9.14" width="512" height="493.73" rx="54.99" ry="54.99" transform="translate(512) rotate(90)" fill="#e6d6a6"/><rect x="20.23" y="11.1" width="471.53" height="489.81" rx="43.89" ry="43.89" fill="#906d88"/><path d="M358,225.87a20.43,20.43,0,0,0-20.42-20.42,18.92,18.92,0,0,0-3.11.32,20.37,20.37,0,1,0-37.76-11.17,20.41,20.41,0,0,0-40.82.64,20.43,20.43,0,0,0-40.86,0,20.42,20.42,0,0,0-40.85,0,20.18,20.18,0,0,0,3,10.5,23.51,23.51,0,0,0-2.82-.29,20.42,20.42,0,0,0,0,40.85,19.61,19.61,0,0,0,4.6-.58A20.34,20.34,0,0,0,194.78,279a20.88,20.88,0,0,0,5.94-1A20.38,20.38,0,0,0,223,311.18a20.28,20.28,0,0,0,18.59,35.3,20.42,20.42,0,1,0,29.27,0,19.94,19.94,0,0,0,5.79.93,20.34,20.34,0,0,0,12.77-36.23,20.37,20.37,0,0,0,22.35-33,21.61,21.61,0,0,0,5.5.84A20.34,20.34,0,0,0,333,245.74a19.62,19.62,0,0,0,4.6.55A20.43,20.43,0,0,0,358,225.87ZM304.77,199c.06.06,4.77,4.95,11,4.89,3.66-.08,7.68-1,10.9-5.5l2,1.08c-4,5.59-7.31,9.8-12.33,9.92h-.29c-8.21,0-12.83-9-13.09-9.29Zm-6,32c.05.06,4.77,4.95,11,4.89,3.66-.08,7.68-1,10.91-5.5l2,1.07c-4,5.59-7.28,9.78-12.31,9.93H310c-8.23,0-12.8-9-13.06-9.29Zm-33.87-29.59c.06.06,4.77,4.95,11,4.89,3.66-.09,7.68-1,10.91-5.5l2,1.08c-4,5.59-7.28,9.8-12.31,9.92h-.32c-8.2,0-12.8-9-13.06-9.28Zm0,29.59c.06.06,4.77,4.95,11,4.89,3.66-.08,7.68-1,10.91-5.5l2,1.07c-4,5.59-7.28,9.78-12.31,9.93h-.32c-8.2,0-12.8-9-13.06-9.29Zm-6,31c.06.06,4.77,4.95,11,4.89,3.67-.08,7.69-1,10.91-5.5l2,1.08c-4,5.59-7.28,9.8-12.3,9.89h-.3c-8.2,0-12.83-8.93-13.09-9.25Zm-1.83,36.54c3.69-.08,7.68-1,10.94-5.5l2,1.08c-4,5.59-7.3,9.8-12.31,9.92h-.32c-8.21,0-12.8-9-13.06-9.28l1.77-1.11c0,.06,4.74,4.95,11,4.89Zm-34.74-98.4,1.74-1.1c.09.06,4.8,4.95,11.06,4.89,3.66-.08,7.68-1,10.9-5.5l2,1.08c-4,5.59-7.3,9.8-12.3,9.92h-.32c-8.21,0-12.83-9-13.07-9.29Zm29,31.34c-4,5.59-7.3,9.78-12.3,9.93h-.32c-8.2,0-12.83-9-13.06-9.29l1.75-1.1c.05.06,4.77,4.95,11,4.89,3.69-.08,7.68-1,10.91-5.5Zm-29,30.52c.06.06,4.77,4.95,11,4.89,3.67-.08,7.69-1,10.91-5.5l2,1.08c-4,5.59-7.31,9.8-12.31,9.89h-.31c-8.21,0-12.8-8.93-13.06-9.25ZM215,230.32l2,1.07c-4,5.59-7.28,9.78-12.31,9.93h-.31c-8.21,0-12.77-9-13.07-9.29l1.77-1.1c.06.06,4.77,4.95,11,4.89,3.67-.08,7.69-1,10.91-5.5ZM182.65,199c.05.06,4.77,4.95,11,4.89,3.66-.08,7.68-1,10.91-5.5l2,1.08c-4,5.59-7.27,9.8-12.31,9.92H194c-8.2,0-12.83-9-13.07-9.29Zm-9.34,40.24H173c-8.21,0-12.83-8.93-13.06-9.25l1.74-1.1c.06.06,4.77,4.95,11,4.89,3.66-.09,7.71-1,10.9-5.5l2,1.07c-4,5.59-7.31,9.81-12.33,9.89Zm23.22,31.6-.29,0c-8.24,0-12.83-9-13.09-9.31l1.77-1.07c.06.06,4.77,4.95,11,4.86,3.66-.08,7.68-1,10.91-5.47l2,1.05c-4,5.59-7.27,9.83-12.3,9.92ZM220,304h-.32c-8.2,0-12.83-9-13.09-9.28l1.78-1.11c.06.06,4.77,4.95,11,4.89,3.66-.08,7.68-1,10.91-5.5l2,1.08c-4,5.59-7.28,9.8-12.28,9.92Zm21.62,34.21c-8.21,0-12.8-9-13.06-9.28l1.77-1.1c.06.06,4.77,4.95,11,4.89,3.67-.11,7.69-1,10.91-5.5l2,1.07c-4,5.59-7.28,9.78-12.31,9.92Zm16.06,34.72h-.32c-8.21,0-12.8-8.94-13.06-9.29l1.74-1.1c.06.09,4.77,4.95,11,4.89,3.69-.08,7.68-1,10.94-5.47l2,1.05c-4,5.61-7.3,9.8-12.31,9.92Zm15-34.72h-.32c-8.21,0-12.8-9-13.06-9.28l1.77-1.1c.06.06,4.77,4.95,11,4.89,3.67-.11,7.69-1,10.91-5.5l2,1.07c-4,5.59-7.28,9.81-12.31,9.92ZM297.5,304h-.32c-8.21,0-12.8-9-13.06-9.28l1.77-1.11c0,.06,4.77,4.95,11,4.89a12.78,12.78,0,0,0,10.91-5.5l2,1.08c-4,5.59-7.31,9.8-12.31,9.92Zm18.88-31.69h-.29c-8.24,0-12.83-8.93-13.09-9.25l1.77-1.11c.06.06,4.77,4.95,11,4.86,3.66-.08,7.68-1,10.9-5.47l2,1.05c-4,5.62-7.31,9.83-12.33,9.92Zm10.44-42.34,1.77-1.1c.06.06,4.77,4.95,11,4.89,3.67-.09,7.68-1,10.91-5.5l2,1.07c-4,5.59-7.27,9.81-12.31,9.89h-.29c-8.24,0-12.83-8.93-13.1-9.25Zm0,0" fill="#e6d6a6"/><path d="M252.48,202s13.27-47.37-11.73-62" fill="#e6d6a6"/><path d="M256,162.88a29.25,29.25,0,0,1,5.53-18.36,31.91,31.91,0,0,1,13.39-10.88,31.23,31.23,0,0,1,18.22-2.26c6.34,1.22,13,4.66,16.35,11.78-6.26,4.54-9.63,7.77-13,10.44a41.72,41.72,0,0,1-10.07,6.23,45.76,45.76,0,0,1-12.51,3.37,63.16,63.16,0,0,1-17.87-.32Zm0,0" fill="#e6d6a6"/><path d="M254.61,167.94a63.64,63.64,0,0,1-16.94,1.74,60.42,60.42,0,0,1-13-1.83,66.47,66.47,0,0,1-11.46-4.13c-4-1.78-8-3.93-14.52-6.61,2.41-6.75,8.32-10.74,14.23-12.66a32.55,32.55,0,0,1,17.81-.38,34.71,34.71,0,0,1,14.84,8.06,29.25,29.25,0,0,1,9.08,15.8Zm0,0" fill="#e6d6a6"/></svg>