<svg id="Layer_1" data-name="Layer 1" xmlns="http://www.w3.org/2000/svg" viewBox="0 0 512 512"><title>lemon-flat</title><rect y="9.14" width="512" height="493.73" rx="54.99" ry="54.99" transform="translate(512) rotate(90)" fill="#e6d6a6"/><rect x="20.23" y="11.1" width="471.53" height="489.81" rx="43.89" ry="43.89" fill="#b79148"/><path d="M400.26,257.48c0-11.67-10.91-21.32-25.26-23.32-12.79-42.74-62.05-74.63-121-74.63-63.62,0-116,37.1-123.36,85-11.07,3.6-18.86,12-18.86,21.9,0,11.83,11.22,21.57,25.85,23.39,17.69,36.61,63,62.7,116.38,62.7,57.56,0,105.84-30.38,120-71.57,14.85-1.7,26.28-11.46,26.28-23.42Z" fill="#e6d6a6"/></svg>