<svg id="Layer_1" data-name="Layer 1" xmlns="http://www.w3.org/2000/svg" viewBox="0 0 512 512"><title>lemon-slices-flat</title><rect y="9.14" width="512" height="493.72" rx="54.99" ry="54.99" transform="translate(512) rotate(90)" fill="#e6d6a6"/><rect x="20.23" y="11.1" width="471.53" height="489.81" rx="43.89" ry="43.89" fill="#809b52"/><path d="M315.62,199.4a72.55,72.55,0,0,0-8.53.74,103.88,103.88,0,0,1,8.8,42,105.42,105.42,0,0,1-64.53,97A84.69,84.69,0,1,0,315.62,199.4Zm-3,164.08a78.93,78.93,0,0,1-50.89-21.11l50.89-50.88Zm82.31-82.31h-72l50.88-50.89A78.69,78.69,0,0,1,394.89,281.17Zm-76.23-76.23A79,79,0,0,1,369.54,226l-50.89,50.89Zm0,158.54v-72l50.89,50.88A79.26,79.26,0,0,1,318.65,363.48Zm55.12-25.34L322.9,287.21h72A79,79,0,0,1,373.78,338.13Z" fill="#e6d6a6"/><path d="M308.88,242.12a98.17,98.17,0,1,0-98.17,98.18A98.3,98.3,0,0,0,308.88,242.12Zm-165.55-62.4,58.9,58.9H119A91.22,91.22,0,0,1,143.33,179.72ZM119,245.63h83.28l-58.9,58.9A91.41,91.41,0,0,1,119,245.63Zm88.26,88.27a91.67,91.67,0,0,1-58.9-24.39l58.9-58.95Zm0-100.24-58.9-58.91a91.17,91.17,0,0,1,58.9-24.38Zm95.26,5H219.2l58.9-58.9A91.64,91.64,0,0,1,302.48,238.62Zm-88.26-88.26a91.41,91.41,0,0,1,58.9,24.38l-58.9,58.91Zm0,183.53V250.61l58.9,58.9A91.66,91.66,0,0,1,214.22,333.9Zm5-88.27h83.28a91.59,91.59,0,0,1-24.38,58.9Z" fill="#e6d6a6"/><path d="M315.62,193.32a92.58,92.58,0,0,0-11.39.83,105.29,105.29,0,1,0-58.9,147.2,90.75,90.75,0,1,0,70.29-148Zm-104.9,147a98.17,98.17,0,1,1,98.17-98.18A98.31,98.31,0,0,1,210.72,340.3ZM315.62,369a84.42,84.42,0,0,1-64.26-29.86,105.42,105.42,0,0,0,64.53-97,103.88,103.88,0,0,0-8.8-42,72.55,72.55,0,0,1,8.53-.74,84.8,84.8,0,0,1,0,169.61Z" fill="#e6d6a6"/></svg>